<?xml version="1.0" encoding="UTF-8" standalone="no"?>
<!DOCTYPE svg PUBLIC "-//W3C//DTD SVG 1.1//EN" "http://www.w3.org/Graphics/SVG/1.1/DTD/svg11.dtd">
<svg width="100%" height="100%" viewBox="0 0 863 37" version="1.1" xmlns="http://www.w3.org/2000/svg" xmlns:xlink="http://www.w3.org/1999/xlink" xml:space="preserve" xmlns:serif="http://www.serif.com/" style="fill-rule:evenodd;clip-rule:evenodd;stroke-linejoin:round;stroke-miterlimit:2;">
    <g id="ArtBoard1" transform="matrix(1,0,0,0.637931,-586,-700.448276)">
        <rect x="586" y="1098" width="432" height="58" style="fill:none;"/>
        <clipPath id="_clip1">
            <rect x="586" y="1098" width="432" height="58"/>
        </clipPath>
        <g clip-path="url(#_clip1)">
            <g transform="matrix(1,0,0,1.567568,382,1029.027027)">
                <g id="Layer0_5_FILL">
                    <g transform="matrix(2.70256,0,0,1,-283.391119,0)">
                        <path d="M340.8,83.55C341.533,83.117 342.117,82.533 342.55,81.8L345.7,76.55C344.933,76.35 344.167,76.2 343.4,76.1L343.3,76.1C338.967,75.467 334.583,75.333 330.15,75.7L330,75.7C325.6,76.167 321.117,77.133 316.55,78.6L316.45,78.65C316.383,78.683 316.333,78.7 316.3,78.7C315.5,78.933 314.683,79.183 313.85,79.45C311.35,80.483 308.85,81.333 306.35,82C305.05,82.367 303.733,82.7 302.4,83C301.7,83.133 301,83.267 300.3,83.4L300.25,83.4C298.45,83.7 296.617,83.917 294.75,84.05C290.217,84.483 285.617,84.433 280.95,83.9C278.317,83.667 275.683,83.267 273.05,82.7C270.483,82.167 267.933,81.5 265.4,80.7C265.367,80.7 265.317,80.683 265.25,80.65C264.483,80.383 263.733,80.133 263,79.9C261.867,79.467 260.867,79.067 260,78.7C259.3,78.4 258.583,78.117 257.85,77.85L257.7,77.85C257.667,77.85 257.617,77.833 257.55,77.8C255.15,76.833 252.667,76.1 250.1,75.6C249.9,75.567 249.717,75.533 249.55,75.5C249.283,75.433 249.017,75.4 248.75,75.4C248.15,75.233 247.533,75.083 246.9,74.95L246.75,74.95C242.45,74.317 238.067,74.2 233.6,74.6L233.5,74.6C229.067,75.067 224.567,76.017 220,77.45L219.95,77.5C219.883,77.533 219.833,77.55 219.8,77.55C218.967,77.783 218.15,78.033 217.35,78.3C214.85,79.333 212.35,80.2 209.85,80.9C208.517,81.267 207.183,81.583 205.85,81.85C205.183,82.05 204.5,82.183 203.8,82.25L203.75,82.25C201.95,82.583 200.1,82.817 198.2,82.95C193.667,83.383 189.067,83.333 184.4,82.8C181.8,82.533 179.183,82.133 176.55,81.6C176.45,81.567 176.35,81.55 176.25,81.55L178.7,87.05C179.133,87.983 179.783,88.717 180.65,89.25C181.483,89.783 182.417,90.033 183.45,90L338.45,84.25C339.283,84.217 340.067,83.983 340.8,83.55M355.3,60.3C355.6,59.8 355.8,59.267 355.9,58.7C355.4,58.5 354.883,58.3 354.35,58.1L354.2,58.1C354.167,58.1 354.117,58.083 354.05,58.05C351.65,57.117 349.167,56.417 346.6,55.95C346.433,55.917 346.267,55.883 346.1,55.85C345.233,55.65 344.333,55.483 343.4,55.35L343.3,55.35C338.967,54.75 334.583,54.667 330.15,55.1L330,55.1C325.6,55.6 321.117,56.6 316.55,58.1L316.45,58.15C316.383,58.183 316.333,58.2 316.3,58.2C315.5,58.433 314.683,58.7 313.85,59C311.35,60.033 308.85,60.917 306.35,61.65C305.05,62.017 303.733,62.35 302.4,62.65C301.7,62.817 301,62.95 300.3,63.05L300.25,63.05C298.45,63.383 296.617,63.633 294.75,63.8C290.217,64.267 285.617,64.267 280.95,63.8C278.317,63.567 275.683,63.183 273.05,62.65C270.483,62.15 267.933,61.5 265.4,60.7C265.367,60.7 265.317,60.683 265.25,60.65C264.483,60.417 263.733,60.183 263,59.95C261.867,59.55 260.867,59.167 260,58.8C259.3,58.5 258.583,58.217 257.85,57.95L257.7,57.95C257.667,57.95 257.617,57.933 257.55,57.9C255.15,56.967 252.667,56.267 250.1,55.8C249.9,55.767 249.717,55.733 249.55,55.7C249.283,55.633 249.017,55.583 248.75,55.55C248.15,55.417 247.533,55.3 246.9,55.2L246.75,55.2C242.45,54.6 238.067,54.517 233.6,54.95L233.5,54.95C229.067,55.45 224.567,56.45 220,57.95L219.95,58C219.883,58.033 219.833,58.05 219.8,58.05C218.967,58.283 218.15,58.55 217.35,58.85C214.85,59.883 212.35,60.767 209.85,61.5C208.517,61.867 207.183,62.2 205.85,62.5C205.183,62.667 204.5,62.8 203.8,62.9L203.75,62.9C201.95,63.233 200.1,63.483 198.2,63.65C193.667,64.117 189.067,64.117 184.4,63.65C181.8,63.417 179.183,63.033 176.55,62.5C173.983,62 171.417,61.35 168.85,60.55C168.817,60.55 168.767,60.533 168.7,60.5C167.967,60.267 167.217,60.033 166.45,59.8L168.15,63.6C168.35,63.667 168.533,63.733 168.7,63.8C168.767,63.833 168.817,63.85 168.85,63.85C171.417,64.717 173.983,65.45 176.55,66.05C179.183,66.65 181.8,67.1 184.4,67.4C189.067,68.033 193.667,68.183 198.2,67.85C200.1,67.75 201.95,67.55 203.75,67.25L203.8,67.25C204.5,67.183 205.183,67.067 205.85,66.9C207.183,66.667 208.517,66.383 209.85,66.05C212.35,65.383 214.85,64.567 217.35,63.6C218.15,63.333 218.967,63.1 219.8,62.9C219.833,62.9 219.883,62.883 219.95,62.85L220,62.8C224.567,61.433 229.067,60.567 233.5,60.2L233.6,60.2C238.067,59.9 242.45,60.117 246.75,60.85L246.9,60.85C247.533,60.983 248.15,61.133 248.75,61.3C249.017,61.333 249.283,61.383 249.55,61.45C249.717,61.483 249.9,61.517 250.1,61.55C252.667,62.117 255.15,62.9 257.55,63.9C257.617,63.933 257.667,63.95 257.7,63.95L257.85,63.95C258.583,64.25 259.3,64.55 260,64.85C260.867,65.25 261.867,65.667 263,66.1C263.733,66.367 264.483,66.633 265.25,66.9C265.317,66.933 265.367,66.95 265.4,66.95C267.933,67.817 270.483,68.533 273.05,69.1C275.683,69.733 278.317,70.2 280.95,70.5C285.617,71.1 290.217,71.233 294.75,70.9C296.617,70.8 298.45,70.617 300.25,70.35L300.3,70.35C301,70.25 301.7,70.133 302.4,70C303.733,69.733 305.05,69.433 306.35,69.1C308.85,68.467 311.35,67.667 313.85,66.7C314.683,66.433 315.5,66.2 316.3,66C316.333,66 316.383,65.983 316.45,65.95L316.55,65.9C321.117,64.533 325.6,63.667 330,63.3L330.15,63.3C334.583,63 338.967,63.217 343.3,63.95L343.4,63.95C344.333,64.117 345.233,64.317 346.1,64.55C346.267,64.583 346.433,64.617 346.6,64.65C348.4,65.017 350.15,65.5 351.85,66.1L355.3,60.3Z" style="fill:rgb(203,138,72);fill-rule:nonzero;"/>
                    </g>
                    <g transform="matrix(2.694737,0,0,1,-281.326316,1)">
                        <path d="M355.5,51.3C355.8,52.333 355.967,53.5 356,54.8L356,53.4C356,52.7 355.967,52.05 355.9,51.45C355.3,45.817 351.833,43 345.5,43L176.5,43C171.9,43 168.817,44.483 167.25,47.45C166.417,49.017 166,51 166,53.4L166,54.9C166.067,52.733 166.483,50.917 167.25,49.45C168.817,46.483 171.9,45 176.5,45L345.5,45C350.967,45 354.3,47.1 355.5,51.3Z" style="fill:rgb(59,222,128);fill-rule:nonzero;"/>
                    </g>
                    <g transform="matrix(2.701847,0,0,1,-282.506596,0.2)">
                        <path d="M346,49.35L346.1,49.35C347.067,49.45 347.983,49.6 348.85,49.8C349.017,49.833 349.183,49.85 349.35,49.85C351.45,50.183 353.5,50.667 355.5,51.3C354.3,47.1 350.967,45 345.5,45L176.5,45C171.9,45 168.817,46.483 167.25,49.45C166.483,50.917 166.067,52.733 166,54.9L166,57.55C166.5,57.65 167,57.783 167.5,57.95C167.567,57.983 167.617,58 167.65,58C170.283,58.733 172.9,59.333 175.5,59.8C178.2,60.267 180.883,60.583 183.55,60.75C188.317,61.15 193.017,61.067 197.65,60.5C199.583,60.3 201.483,60.017 203.35,59.65L203.4,59.65C204.1,59.517 204.8,59.367 205.5,59.2C206.833,58.867 208.183,58.5 209.55,58.1C212.117,57.333 214.683,56.4 217.25,55.3C218.05,55 218.883,54.717 219.75,54.45C219.783,54.45 219.833,54.433 219.9,54.4L219.95,54.35C224.617,52.783 229.217,51.7 233.75,51.1L233.85,51.1C238.417,50.567 242.9,50.567 247.3,51.1L247.45,51.1C248.083,51.167 248.717,51.267 249.35,51.4C249.617,51.433 249.883,51.483 250.15,51.55C250.317,51.583 250.5,51.617 250.7,51.65C253.333,52.05 255.883,52.7 258.35,53.6C258.417,53.633 258.467,53.65 258.5,53.65L258.65,53.6C259.383,53.867 260.117,54.15 260.85,54.45C261.717,54.783 262.733,55.133 263.9,55.5C264.667,55.733 265.433,55.967 266.2,56.2L266.35,56.2C268.95,56.967 271.567,57.567 274.2,58C276.867,58.5 279.55,58.833 282.25,59C287.017,59.4 291.717,59.317 296.35,58.75C298.283,58.55 300.167,58.267 302,57.9L302.05,57.9C302.75,57.767 303.467,57.617 304.2,57.45C305.567,57.117 306.9,56.75 308.2,56.35C310.767,55.583 313.333,54.65 315.9,53.55C316.733,53.25 317.567,52.967 318.4,52.7C318.433,52.7 318.483,52.683 318.55,52.65L318.65,52.6C323.317,51.033 327.9,49.95 332.4,49.35L332.55,49.35C337.083,48.817 341.567,48.817 346,49.35Z" style="fill:rgb(46,204,113);fill-rule:nonzero;"/>
                    </g>
                    <g transform="matrix(2.694737,0,0,1,-281.326316,0.05)">
                        <path d="M346.1,49.35L346,49.35C341.567,48.817 337.083,48.817 332.55,49.35L332.4,49.35C327.9,49.95 323.317,51.033 318.65,52.6L318.55,52.65C318.483,52.683 318.433,52.7 318.4,52.7C317.567,52.967 316.733,53.25 315.9,53.55C313.333,54.65 310.767,55.583 308.2,56.35C306.9,56.75 305.567,57.117 304.2,57.45C303.467,57.617 302.75,57.767 302.05,57.9L302,57.9C300.167,58.267 298.283,58.55 296.35,58.75C291.717,59.317 287.017,59.4 282.25,59C279.55,58.833 276.867,58.5 274.2,58C271.567,57.567 268.95,56.967 266.35,56.2L266.2,56.2C265.433,55.967 264.667,55.733 263.9,55.5C262.733,55.133 261.717,54.783 260.85,54.45C260.117,54.15 259.383,53.867 258.65,53.6L258.5,53.65C258.467,53.65 258.417,53.633 258.35,53.6C255.883,52.7 253.333,52.05 250.7,51.65C250.5,51.617 250.317,51.583 250.15,51.55C249.883,51.483 249.617,51.433 249.35,51.4C248.717,51.267 248.083,51.167 247.45,51.1L247.3,51.1C242.9,50.567 238.417,50.567 233.85,51.1L233.75,51.1C229.217,51.7 224.617,52.783 219.95,54.35L219.9,54.4C219.833,54.433 219.783,54.45 219.75,54.45C218.883,54.717 218.05,55 217.25,55.3C214.683,56.4 212.117,57.333 209.55,58.1C208.183,58.5 206.833,58.867 205.5,59.2C204.8,59.367 204.1,59.517 203.4,59.65L203.35,59.65C201.483,60.017 199.583,60.3 197.65,60.5C193.017,61.067 188.317,61.15 183.55,60.75C180.883,60.583 178.2,60.267 175.5,59.8C172.9,59.333 170.283,58.733 167.65,58C167.617,58 167.567,57.983 167.5,57.95C167,57.783 166.5,57.65 166,57.55L166,57.9C166.033,58.533 166.183,59.167 166.45,59.8C167.217,60.033 167.967,60.267 168.7,60.5C168.767,60.533 168.817,60.55 168.85,60.55C171.417,61.35 173.983,62 176.55,62.5C179.183,63.033 181.8,63.417 184.4,63.65C189.067,64.117 193.667,64.117 198.2,63.65C200.1,63.483 201.95,63.233 203.75,62.9L203.8,62.9C204.5,62.8 205.183,62.667 205.85,62.5C207.183,62.2 208.517,61.867 209.85,61.5C212.35,60.767 214.85,59.883 217.35,58.85C218.15,58.55 218.967,58.283 219.8,58.05C219.833,58.05 219.883,58.033 219.95,58L220,57.95C224.567,56.45 229.067,55.45 233.5,54.95L233.6,54.95C238.067,54.517 242.45,54.6 246.75,55.2L246.9,55.2C247.533,55.3 248.15,55.417 248.75,55.55C249.017,55.583 249.283,55.633 249.55,55.7C249.717,55.733 249.9,55.767 250.1,55.8C252.667,56.267 255.15,56.967 257.55,57.9C257.617,57.933 257.667,57.95 257.7,57.95L257.85,57.95C258.583,58.217 259.3,58.5 260,58.8C260.867,59.167 261.867,59.55 263,59.95C263.733,60.183 264.483,60.417 265.25,60.65C265.317,60.683 265.367,60.7 265.4,60.7C267.933,61.5 270.483,62.15 273.05,62.65C275.683,63.183 278.317,63.567 280.95,63.8C285.617,64.267 290.217,64.267 294.75,63.8C296.617,63.633 298.45,63.383 300.25,63.05L300.3,63.05C301,62.95 301.7,62.817 302.4,62.65C303.733,62.35 305.05,62.017 306.35,61.65C308.85,60.917 311.35,60.033 313.85,59C314.683,58.7 315.5,58.433 316.3,58.2C316.333,58.2 316.383,58.183 316.45,58.15L316.55,58.1C321.117,56.6 325.6,55.6 330,55.1L330.15,55.1C334.583,54.667 338.967,54.75 343.3,55.35L343.4,55.35C344.333,55.483 345.233,55.65 346.1,55.85C346.267,55.883 346.433,55.917 346.6,55.95C349.167,56.417 351.65,57.117 354.05,58.05C354.117,58.083 354.167,58.1 354.2,58.1L354.35,58.1C354.883,58.3 355.4,58.5 355.9,58.7C355.967,58.433 356,58.167 356,57.9L356,54.8C355.967,53.5 355.8,52.333 355.5,51.3C353.5,50.667 351.45,50.183 349.35,49.85C349.183,49.85 349.017,49.833 348.85,49.8C347.983,49.6 347.067,49.45 346.1,49.35Z" style="fill:rgb(40,177,98);fill-rule:nonzero;"/>
                    </g>
                </g>
            </g>
            <g transform="matrix(2.700054,0,0,1.890484,100.135846,1005.602002)">
                <path d="M351.85,66.1C350.15,65.5 348.4,65.017 346.6,64.65C346.433,64.617 346.267,64.583 346.1,64.55C345.233,64.317 344.333,64.117 343.4,63.95L343.3,63.95C338.967,63.217 334.583,63 330.15,63.3L330,63.3C325.6,63.667 321.117,64.533 316.55,65.9L316.45,65.95C316.383,65.983 316.333,66 316.3,66C315.5,66.2 314.683,66.433 313.85,66.7C311.35,67.667 308.85,68.467 306.35,69.1C305.05,69.433 303.733,69.733 302.4,70C301.7,70.133 301,70.25 300.3,70.35L300.25,70.35C298.45,70.617 296.617,70.8 294.75,70.9C290.217,71.233 285.617,71.1 280.95,70.5C278.317,70.2 275.683,69.733 273.05,69.1C270.483,68.533 267.933,67.817 265.4,66.95C265.367,66.95 265.317,66.933 265.25,66.9C264.483,66.633 263.733,66.367 263,66.1C261.867,65.667 260.867,65.25 260,64.85C259.3,64.55 258.583,64.25 257.85,63.95L257.7,63.95C257.667,63.95 257.617,63.933 257.55,63.9C255.15,62.9 252.667,62.117 250.1,61.55C249.9,61.517 249.717,61.483 249.55,61.45C249.283,61.383 249.017,61.333 248.75,61.3C248.15,61.133 247.533,60.983 246.9,60.85L246.75,60.85C242.45,60.117 238.067,59.9 233.6,60.2L233.5,60.2C229.067,60.567 224.567,61.433 220,62.8L219.95,62.85C219.883,62.883 219.833,62.9 219.8,62.9C218.967,63.1 218.15,63.333 217.35,63.6C214.85,64.567 212.35,65.383 209.85,66.05C208.517,66.383 207.183,66.667 205.85,66.9C205.183,67.067 204.5,67.183 203.8,67.25L203.75,67.25C201.95,67.55 200.1,67.75 198.2,67.85C193.667,68.183 189.067,68.033 184.4,67.4C181.8,67.1 179.183,66.65 176.55,66.05C173.983,65.45 171.417,64.717 168.85,63.85C168.817,63.85 168.767,63.833 168.7,63.8C168.533,63.733 168.35,63.667 168.15,63.6L176.25,81.55C176.35,81.55 176.45,81.567 176.55,81.6C179.183,82.133 181.8,82.533 184.4,82.8C189.067,83.333 193.667,83.383 198.2,82.95C200.1,82.817 201.95,82.583 203.75,82.25L203.8,82.25C204.5,82.183 205.183,82.05 205.85,81.85C207.183,81.583 208.517,81.267 209.85,80.9C212.35,80.2 214.85,79.333 217.35,78.3C218.15,78.033 218.967,77.783 219.8,77.55C219.833,77.55 219.883,77.533 219.95,77.5L220,77.45C224.567,76.017 229.067,75.067 233.5,74.6L233.6,74.6C238.067,74.2 242.45,74.317 246.75,74.95L246.9,74.95C247.533,75.083 248.15,75.233 248.75,75.4C249.017,75.4 249.283,75.433 249.55,75.5C249.717,75.533 249.9,75.567 250.1,75.6C252.667,76.1 255.15,76.833 257.55,77.8C257.617,77.833 257.667,77.85 257.7,77.85L257.85,77.85C258.583,78.117 259.3,78.4 260,78.7C260.867,79.067 261.867,79.467 263,79.9C263.733,80.133 264.483,80.383 265.25,80.65C265.317,80.683 265.367,80.7 265.4,80.7C267.933,81.5 270.483,82.167 273.05,82.7C275.683,83.267 278.317,83.667 280.95,83.9C285.617,84.433 290.217,84.483 294.75,84.05C296.617,83.917 298.45,83.7 300.25,83.4L300.3,83.4C301,83.267 301.7,83.133 302.4,83C303.733,82.7 305.05,82.367 306.35,82C308.85,81.333 311.35,80.483 313.85,79.45C314.683,79.183 315.5,78.933 316.3,78.7C316.333,78.7 316.383,78.683 316.45,78.65L316.55,78.6C321.117,77.133 325.6,76.167 330,75.7L330.15,75.7C334.583,75.333 338.967,75.467 343.3,76.1L343.4,76.1C344.167,76.2 344.933,76.35 345.7,76.55L351.85,66.1Z" style="fill:rgb(210,147,83);fill-rule:nonzero;"/>
            </g>
        </g>
    </g>
    <g id="ArtBoard11" serif:id="ArtBoard1" transform="matrix(-1,0,-0,0.637931,1449,-700.448276)">
        <rect x="586" y="1098" width="432" height="58" style="fill:none;"/>
        <clipPath id="_clip2">
            <rect x="586" y="1098" width="432" height="58"/>
        </clipPath>
        <g clip-path="url(#_clip2)">
            <g transform="matrix(1,0,0,1.567568,382,1029.027027)">
                <g id="Layer0_5_FILL1" serif:id="Layer0_5_FILL">
                    <g transform="matrix(2.70256,0,0,1,-283.391119,0)">
                        <path d="M340.8,83.55C341.533,83.117 342.117,82.533 342.55,81.8L345.7,76.55C344.933,76.35 344.167,76.2 343.4,76.1L343.3,76.1C338.967,75.467 334.583,75.333 330.15,75.7L330,75.7C325.6,76.167 321.117,77.133 316.55,78.6L316.45,78.65C316.383,78.683 316.333,78.7 316.3,78.7C315.5,78.933 314.683,79.183 313.85,79.45C311.35,80.483 308.85,81.333 306.35,82C305.05,82.367 303.733,82.7 302.4,83C301.7,83.133 301,83.267 300.3,83.4L300.25,83.4C298.45,83.7 296.617,83.917 294.75,84.05C290.217,84.483 285.617,84.433 280.95,83.9C278.317,83.667 275.683,83.267 273.05,82.7C270.483,82.167 267.933,81.5 265.4,80.7C265.367,80.7 265.317,80.683 265.25,80.65C264.483,80.383 263.733,80.133 263,79.9C261.867,79.467 260.867,79.067 260,78.7C259.3,78.4 258.583,78.117 257.85,77.85L257.7,77.85C257.667,77.85 257.617,77.833 257.55,77.8C255.15,76.833 252.667,76.1 250.1,75.6C249.9,75.567 249.717,75.533 249.55,75.5C249.283,75.433 249.017,75.4 248.75,75.4C248.15,75.233 247.533,75.083 246.9,74.95L246.75,74.95C242.45,74.317 238.067,74.2 233.6,74.6L233.5,74.6C229.067,75.067 224.567,76.017 220,77.45L219.95,77.5C219.883,77.533 219.833,77.55 219.8,77.55C218.967,77.783 218.15,78.033 217.35,78.3C214.85,79.333 212.35,80.2 209.85,80.9C208.517,81.267 207.183,81.583 205.85,81.85C205.183,82.05 204.5,82.183 203.8,82.25L203.75,82.25C201.95,82.583 200.1,82.817 198.2,82.95C193.667,83.383 189.067,83.333 184.4,82.8C181.8,82.533 179.183,82.133 176.55,81.6C176.45,81.567 176.35,81.55 176.25,81.55L178.7,87.05C179.133,87.983 179.783,88.717 180.65,89.25C181.483,89.783 182.417,90.033 183.45,90L338.45,84.25C339.283,84.217 340.067,83.983 340.8,83.55M355.3,60.3C355.6,59.8 355.8,59.267 355.9,58.7C355.4,58.5 354.883,58.3 354.35,58.1L354.2,58.1C354.167,58.1 354.117,58.083 354.05,58.05C351.65,57.117 349.167,56.417 346.6,55.95C346.433,55.917 346.267,55.883 346.1,55.85C345.233,55.65 344.333,55.483 343.4,55.35L343.3,55.35C338.967,54.75 334.583,54.667 330.15,55.1L330,55.1C325.6,55.6 321.117,56.6 316.55,58.1L316.45,58.15C316.383,58.183 316.333,58.2 316.3,58.2C315.5,58.433 314.683,58.7 313.85,59C311.35,60.033 308.85,60.917 306.35,61.65C305.05,62.017 303.733,62.35 302.4,62.65C301.7,62.817 301,62.95 300.3,63.05L300.25,63.05C298.45,63.383 296.617,63.633 294.75,63.8C290.217,64.267 285.617,64.267 280.95,63.8C278.317,63.567 275.683,63.183 273.05,62.65C270.483,62.15 267.933,61.5 265.4,60.7C265.367,60.7 265.317,60.683 265.25,60.65C264.483,60.417 263.733,60.183 263,59.95C261.867,59.55 260.867,59.167 260,58.8C259.3,58.5 258.583,58.217 257.85,57.95L257.7,57.95C257.667,57.95 257.617,57.933 257.55,57.9C255.15,56.967 252.667,56.267 250.1,55.8C249.9,55.767 249.717,55.733 249.55,55.7C249.283,55.633 249.017,55.583 248.75,55.55C248.15,55.417 247.533,55.3 246.9,55.2L246.75,55.2C242.45,54.6 238.067,54.517 233.6,54.95L233.5,54.95C229.067,55.45 224.567,56.45 220,57.95L219.95,58C219.883,58.033 219.833,58.05 219.8,58.05C218.967,58.283 218.15,58.55 217.35,58.85C214.85,59.883 212.35,60.767 209.85,61.5C208.517,61.867 207.183,62.2 205.85,62.5C205.183,62.667 204.5,62.8 203.8,62.9L203.75,62.9C201.95,63.233 200.1,63.483 198.2,63.65C193.667,64.117 189.067,64.117 184.4,63.65C181.8,63.417 179.183,63.033 176.55,62.5C173.983,62 171.417,61.35 168.85,60.55C168.817,60.55 168.767,60.533 168.7,60.5C167.967,60.267 167.217,60.033 166.45,59.8L168.15,63.6C168.35,63.667 168.533,63.733 168.7,63.8C168.767,63.833 168.817,63.85 168.85,63.85C171.417,64.717 173.983,65.45 176.55,66.05C179.183,66.65 181.8,67.1 184.4,67.4C189.067,68.033 193.667,68.183 198.2,67.85C200.1,67.75 201.95,67.55 203.75,67.25L203.8,67.25C204.5,67.183 205.183,67.067 205.85,66.9C207.183,66.667 208.517,66.383 209.85,66.05C212.35,65.383 214.85,64.567 217.35,63.6C218.15,63.333 218.967,63.1 219.8,62.9C219.833,62.9 219.883,62.883 219.95,62.85L220,62.8C224.567,61.433 229.067,60.567 233.5,60.2L233.6,60.2C238.067,59.9 242.45,60.117 246.75,60.85L246.9,60.85C247.533,60.983 248.15,61.133 248.75,61.3C249.017,61.333 249.283,61.383 249.55,61.45C249.717,61.483 249.9,61.517 250.1,61.55C252.667,62.117 255.15,62.9 257.55,63.9C257.617,63.933 257.667,63.95 257.7,63.95L257.85,63.95C258.583,64.25 259.3,64.55 260,64.85C260.867,65.25 261.867,65.667 263,66.1C263.733,66.367 264.483,66.633 265.25,66.9C265.317,66.933 265.367,66.95 265.4,66.95C267.933,67.817 270.483,68.533 273.05,69.1C275.683,69.733 278.317,70.2 280.95,70.5C285.617,71.1 290.217,71.233 294.75,70.9C296.617,70.8 298.45,70.617 300.25,70.35L300.3,70.35C301,70.25 301.7,70.133 302.4,70C303.733,69.733 305.05,69.433 306.35,69.1C308.85,68.467 311.35,67.667 313.85,66.7C314.683,66.433 315.5,66.2 316.3,66C316.333,66 316.383,65.983 316.45,65.95L316.55,65.9C321.117,64.533 325.6,63.667 330,63.3L330.15,63.3C334.583,63 338.967,63.217 343.3,63.95L343.4,63.95C344.333,64.117 345.233,64.317 346.1,64.55C346.267,64.583 346.433,64.617 346.6,64.65C348.4,65.017 350.15,65.5 351.85,66.1L355.3,60.3Z" style="fill:rgb(203,138,72);fill-rule:nonzero;"/>
                    </g>
                    <g transform="matrix(2.694737,0,0,1,-281.326316,1)">
                        <path d="M355.5,51.3C355.8,52.333 355.967,53.5 356,54.8L356,53.4C356,52.7 355.967,52.05 355.9,51.45C355.3,45.817 351.833,43 345.5,43L176.5,43C171.9,43 168.817,44.483 167.25,47.45C166.417,49.017 166,51 166,53.4L166,54.9C166.067,52.733 166.483,50.917 167.25,49.45C168.817,46.483 171.9,45 176.5,45L345.5,45C350.967,45 354.3,47.1 355.5,51.3Z" style="fill:rgb(59,222,128);fill-rule:nonzero;"/>
                    </g>
                    <g transform="matrix(2.701847,0,0,1,-282.506596,0.2)">
                        <path d="M346,49.35L346.1,49.35C347.067,49.45 347.983,49.6 348.85,49.8C349.017,49.833 349.183,49.85 349.35,49.85C351.45,50.183 353.5,50.667 355.5,51.3C354.3,47.1 350.967,45 345.5,45L176.5,45C171.9,45 168.817,46.483 167.25,49.45C166.483,50.917 166.067,52.733 166,54.9L166,57.55C166.5,57.65 167,57.783 167.5,57.95C167.567,57.983 167.617,58 167.65,58C170.283,58.733 172.9,59.333 175.5,59.8C178.2,60.267 180.883,60.583 183.55,60.75C188.317,61.15 193.017,61.067 197.65,60.5C199.583,60.3 201.483,60.017 203.35,59.65L203.4,59.65C204.1,59.517 204.8,59.367 205.5,59.2C206.833,58.867 208.183,58.5 209.55,58.1C212.117,57.333 214.683,56.4 217.25,55.3C218.05,55 218.883,54.717 219.75,54.45C219.783,54.45 219.833,54.433 219.9,54.4L219.95,54.35C224.617,52.783 229.217,51.7 233.75,51.1L233.85,51.1C238.417,50.567 242.9,50.567 247.3,51.1L247.45,51.1C248.083,51.167 248.717,51.267 249.35,51.4C249.617,51.433 249.883,51.483 250.15,51.55C250.317,51.583 250.5,51.617 250.7,51.65C253.333,52.05 255.883,52.7 258.35,53.6C258.417,53.633 258.467,53.65 258.5,53.65L258.65,53.6C259.383,53.867 260.117,54.15 260.85,54.45C261.717,54.783 262.733,55.133 263.9,55.5C264.667,55.733 265.433,55.967 266.2,56.2L266.35,56.2C268.95,56.967 271.567,57.567 274.2,58C276.867,58.5 279.55,58.833 282.25,59C287.017,59.4 291.717,59.317 296.35,58.75C298.283,58.55 300.167,58.267 302,57.9L302.05,57.9C302.75,57.767 303.467,57.617 304.2,57.45C305.567,57.117 306.9,56.75 308.2,56.35C310.767,55.583 313.333,54.65 315.9,53.55C316.733,53.25 317.567,52.967 318.4,52.7C318.433,52.7 318.483,52.683 318.55,52.65L318.65,52.6C323.317,51.033 327.9,49.95 332.4,49.35L332.55,49.35C337.083,48.817 341.567,48.817 346,49.35Z" style="fill:rgb(46,204,113);fill-rule:nonzero;"/>
                    </g>
                    <g transform="matrix(2.694737,0,0,1,-281.326316,0.05)">
                        <path d="M346.1,49.35L346,49.35C341.567,48.817 337.083,48.817 332.55,49.35L332.4,49.35C327.9,49.95 323.317,51.033 318.65,52.6L318.55,52.65C318.483,52.683 318.433,52.7 318.4,52.7C317.567,52.967 316.733,53.25 315.9,53.55C313.333,54.65 310.767,55.583 308.2,56.35C306.9,56.75 305.567,57.117 304.2,57.45C303.467,57.617 302.75,57.767 302.05,57.9L302,57.9C300.167,58.267 298.283,58.55 296.35,58.75C291.717,59.317 287.017,59.4 282.25,59C279.55,58.833 276.867,58.5 274.2,58C271.567,57.567 268.95,56.967 266.35,56.2L266.2,56.2C265.433,55.967 264.667,55.733 263.9,55.5C262.733,55.133 261.717,54.783 260.85,54.45C260.117,54.15 259.383,53.867 258.65,53.6L258.5,53.65C258.467,53.65 258.417,53.633 258.35,53.6C255.883,52.7 253.333,52.05 250.7,51.65C250.5,51.617 250.317,51.583 250.15,51.55C249.883,51.483 249.617,51.433 249.35,51.4C248.717,51.267 248.083,51.167 247.45,51.1L247.3,51.1C242.9,50.567 238.417,50.567 233.85,51.1L233.75,51.1C229.217,51.7 224.617,52.783 219.95,54.35L219.9,54.4C219.833,54.433 219.783,54.45 219.75,54.45C218.883,54.717 218.05,55 217.25,55.3C214.683,56.4 212.117,57.333 209.55,58.1C208.183,58.5 206.833,58.867 205.5,59.2C204.8,59.367 204.1,59.517 203.4,59.65L203.35,59.65C201.483,60.017 199.583,60.3 197.65,60.5C193.017,61.067 188.317,61.15 183.55,60.75C180.883,60.583 178.2,60.267 175.5,59.8C172.9,59.333 170.283,58.733 167.65,58C167.617,58 167.567,57.983 167.5,57.95C167,57.783 166.5,57.65 166,57.55L166,57.9C166.033,58.533 166.183,59.167 166.45,59.8C167.217,60.033 167.967,60.267 168.7,60.5C168.767,60.533 168.817,60.55 168.85,60.55C171.417,61.35 173.983,62 176.55,62.5C179.183,63.033 181.8,63.417 184.4,63.65C189.067,64.117 193.667,64.117 198.2,63.65C200.1,63.483 201.95,63.233 203.75,62.9L203.8,62.9C204.5,62.8 205.183,62.667 205.85,62.5C207.183,62.2 208.517,61.867 209.85,61.5C212.35,60.767 214.85,59.883 217.35,58.85C218.15,58.55 218.967,58.283 219.8,58.05C219.833,58.05 219.883,58.033 219.95,58L220,57.95C224.567,56.45 229.067,55.45 233.5,54.95L233.6,54.95C238.067,54.517 242.45,54.6 246.75,55.2L246.9,55.2C247.533,55.3 248.15,55.417 248.75,55.55C249.017,55.583 249.283,55.633 249.55,55.7C249.717,55.733 249.9,55.767 250.1,55.8C252.667,56.267 255.15,56.967 257.55,57.9C257.617,57.933 257.667,57.95 257.7,57.95L257.85,57.95C258.583,58.217 259.3,58.5 260,58.8C260.867,59.167 261.867,59.55 263,59.95C263.733,60.183 264.483,60.417 265.25,60.65C265.317,60.683 265.367,60.7 265.4,60.7C267.933,61.5 270.483,62.15 273.05,62.65C275.683,63.183 278.317,63.567 280.95,63.8C285.617,64.267 290.217,64.267 294.75,63.8C296.617,63.633 298.45,63.383 300.25,63.05L300.3,63.05C301,62.95 301.7,62.817 302.4,62.65C303.733,62.35 305.05,62.017 306.35,61.65C308.85,60.917 311.35,60.033 313.85,59C314.683,58.7 315.5,58.433 316.3,58.2C316.333,58.2 316.383,58.183 316.45,58.15L316.55,58.1C321.117,56.6 325.6,55.6 330,55.1L330.15,55.1C334.583,54.667 338.967,54.75 343.3,55.35L343.4,55.35C344.333,55.483 345.233,55.65 346.1,55.85C346.267,55.883 346.433,55.917 346.6,55.95C349.167,56.417 351.65,57.117 354.05,58.05C354.117,58.083 354.167,58.1 354.2,58.1L354.35,58.1C354.883,58.3 355.4,58.5 355.9,58.7C355.967,58.433 356,58.167 356,57.9L356,54.8C355.967,53.5 355.8,52.333 355.5,51.3C353.5,50.667 351.45,50.183 349.35,49.85C349.183,49.85 349.017,49.833 348.85,49.8C347.983,49.6 347.067,49.45 346.1,49.35Z" style="fill:rgb(40,177,98);fill-rule:nonzero;"/>
                    </g>
                </g>
            </g>
            <g transform="matrix(2.700054,0,0,1.890484,100.135846,1005.602002)">
                <path d="M351.85,66.1C350.15,65.5 348.4,65.017 346.6,64.65C346.433,64.617 346.267,64.583 346.1,64.55C345.233,64.317 344.333,64.117 343.4,63.95L343.3,63.95C338.967,63.217 334.583,63 330.15,63.3L330,63.3C325.6,63.667 321.117,64.533 316.55,65.9L316.45,65.95C316.383,65.983 316.333,66 316.3,66C315.5,66.2 314.683,66.433 313.85,66.7C311.35,67.667 308.85,68.467 306.35,69.1C305.05,69.433 303.733,69.733 302.4,70C301.7,70.133 301,70.25 300.3,70.35L300.25,70.35C298.45,70.617 296.617,70.8 294.75,70.9C290.217,71.233 285.617,71.1 280.95,70.5C278.317,70.2 275.683,69.733 273.05,69.1C270.483,68.533 267.933,67.817 265.4,66.95C265.367,66.95 265.317,66.933 265.25,66.9C264.483,66.633 263.733,66.367 263,66.1C261.867,65.667 260.867,65.25 260,64.85C259.3,64.55 258.583,64.25 257.85,63.95L257.7,63.95C257.667,63.95 257.617,63.933 257.55,63.9C255.15,62.9 252.667,62.117 250.1,61.55C249.9,61.517 249.717,61.483 249.55,61.45C249.283,61.383 249.017,61.333 248.75,61.3C248.15,61.133 247.533,60.983 246.9,60.85L246.75,60.85C242.45,60.117 238.067,59.9 233.6,60.2L233.5,60.2C229.067,60.567 224.567,61.433 220,62.8L219.95,62.85C219.883,62.883 219.833,62.9 219.8,62.9C218.967,63.1 218.15,63.333 217.35,63.6C214.85,64.567 212.35,65.383 209.85,66.05C208.517,66.383 207.183,66.667 205.85,66.9C205.183,67.067 204.5,67.183 203.8,67.25L203.75,67.25C201.95,67.55 200.1,67.75 198.2,67.85C193.667,68.183 189.067,68.033 184.4,67.4C181.8,67.1 179.183,66.65 176.55,66.05C173.983,65.45 171.417,64.717 168.85,63.85C168.817,63.85 168.767,63.833 168.7,63.8C168.533,63.733 168.35,63.667 168.15,63.6L176.25,81.55C176.35,81.55 176.45,81.567 176.55,81.6C179.183,82.133 181.8,82.533 184.4,82.8C189.067,83.333 193.667,83.383 198.2,82.95C200.1,82.817 201.95,82.583 203.75,82.25L203.8,82.25C204.5,82.183 205.183,82.05 205.85,81.85C207.183,81.583 208.517,81.267 209.85,80.9C212.35,80.2 214.85,79.333 217.35,78.3C218.15,78.033 218.967,77.783 219.8,77.55C219.833,77.55 219.883,77.533 219.95,77.5L220,77.45C224.567,76.017 229.067,75.067 233.5,74.6L233.6,74.6C238.067,74.2 242.45,74.317 246.75,74.95L246.9,74.95C247.533,75.083 248.15,75.233 248.75,75.4C249.017,75.4 249.283,75.433 249.55,75.5C249.717,75.533 249.9,75.567 250.1,75.6C252.667,76.1 255.15,76.833 257.55,77.8C257.617,77.833 257.667,77.85 257.7,77.85L257.85,77.85C258.583,78.117 259.3,78.4 260,78.7C260.867,79.067 261.867,79.467 263,79.9C263.733,80.133 264.483,80.383 265.25,80.65C265.317,80.683 265.367,80.7 265.4,80.7C267.933,81.5 270.483,82.167 273.05,82.7C275.683,83.267 278.317,83.667 280.95,83.9C285.617,84.433 290.217,84.483 294.75,84.05C296.617,83.917 298.45,83.7 300.25,83.4L300.3,83.4C301,83.267 301.7,83.133 302.4,83C303.733,82.7 305.05,82.367 306.35,82C308.85,81.333 311.35,80.483 313.85,79.45C314.683,79.183 315.5,78.933 316.3,78.7C316.333,78.7 316.383,78.683 316.45,78.65L316.55,78.6C321.117,77.133 325.6,76.167 330,75.7L330.15,75.7C334.583,75.333 338.967,75.467 343.3,76.1L343.4,76.1C344.167,76.2 344.933,76.35 345.7,76.55L351.85,66.1Z" style="fill:rgb(210,147,83);fill-rule:nonzero;"/>
            </g>
        </g>
    </g>
</svg>
