<?xml version="1.0" encoding="UTF-8" standalone="no"?>
<!DOCTYPE svg PUBLIC "-//W3C//DTD SVG 1.1//EN" "http://www.w3.org/Graphics/SVG/1.1/DTD/svg11.dtd">
<svg width="100%" height="100%" viewBox="0 0 41 35" version="1.1" xmlns="http://www.w3.org/2000/svg" xmlns:xlink="http://www.w3.org/1999/xlink" xml:space="preserve" xmlns:serif="http://www.serif.com/" style="fill-rule:evenodd;clip-rule:evenodd;stroke-linejoin:round;stroke-miterlimit:2;">
    <g transform="matrix(1,0,0,1,-1102.133333,-345.011111)">
        <g transform="matrix(1,0,0,1,40,120)">
            <g id="Layer0_34_FILL">
                <path d="M1063.65,253.85L1070.35,252L1070.35,250L1063.65,251.85C1063.117,251.983 1062.717,252.283 1062.45,252.75L1062.4,252.75C1062.133,253.217 1062.067,253.7 1062.2,254.2C1062.233,254.4 1062.317,254.567 1062.45,254.7C1062.717,254.267 1063.117,253.983 1063.65,253.85M1102.8,246.45L1102.85,246.3C1103.017,245.933 1103.083,245.55 1103.05,245.15C1102.983,244.883 1102.9,244.667 1102.8,244.5C1102.7,244.367 1102.6,244.233 1102.5,244.1C1102.2,243.8 1101.85,243.617 1101.45,243.55L1094.1,242.1L1092.35,226.8C1092.283,226.367 1092.117,226 1091.85,225.7C1091.583,225.4 1091.25,225.2 1090.85,225.1C1090.45,224.967 1090.067,224.983 1089.7,225.15C1089.3,225.283 1088.983,225.517 1088.75,225.85L1079.95,238.15L1067.55,233.8C1067.017,233.6 1066.517,233.617 1066.05,233.85C1065.617,234.017 1065.3,234.283 1065.1,234.65C1065.067,234.717 1065.033,234.783 1065,234.85C1064.8,235.35 1064.8,235.85 1065,236.35L1065.1,236.65C1065.3,236.25 1065.617,235.967 1066.05,235.8C1066.517,235.567 1067.017,235.55 1067.55,235.75L1079.95,240.1L1088.75,227.85C1088.983,227.517 1089.3,227.283 1089.7,227.15C1090.067,226.983 1090.45,226.967 1090.85,227.1C1091.25,227.2 1091.583,227.4 1091.85,227.7C1092.117,228 1092.283,228.367 1092.35,228.8L1094.1,244.1L1101.45,245.5C1101.85,245.567 1102.2,245.75 1102.5,246.05C1102.6,246.183 1102.7,246.317 1102.8,246.45Z" style="fill:rgb(43,194,106);fill-rule:nonzero;"/>
                <path d="M1102.5,246.05C1102.2,245.75 1101.85,245.567 1101.45,245.5L1094.1,244.1L1092.35,228.8C1092.283,228.367 1092.117,228 1091.85,227.7C1091.583,227.4 1091.25,227.2 1090.85,227.1C1090.45,226.967 1090.067,226.983 1089.7,227.15C1089.3,227.283 1088.983,227.517 1088.75,227.85L1079.95,240.1L1067.55,235.75C1067.017,235.55 1066.517,235.567 1066.05,235.8C1065.617,235.967 1065.3,236.25 1065.1,236.65L1070.35,250L1070.35,252L1063.65,253.85C1063.117,253.983 1062.717,254.267 1062.45,254.7C1062.583,254.967 1062.783,255.2 1063.05,255.4L1070.15,260L1096.3,260L1102.8,246.45C1102.7,246.317 1102.6,246.183 1102.5,246.05Z" style="fill:rgb(39,174,96);fill-rule:nonzero;"/>
            </g>
        </g>
    </g>
</svg>
