<?xml version="1.0" encoding="UTF-8" standalone="no"?>
<!DOCTYPE svg PUBLIC "-//W3C//DTD SVG 1.1//EN" "http://www.w3.org/Graphics/SVG/1.1/DTD/svg11.dtd">
<svg width="100%" height="100%" viewBox="0 0 29 29" version="1.1" xmlns="http://www.w3.org/2000/svg" xmlns:xlink="http://www.w3.org/1999/xlink" xml:space="preserve" xmlns:serif="http://www.serif.com/" style="fill-rule:evenodd;clip-rule:evenodd;stroke-linejoin:round;stroke-miterlimit:2;">
    <g transform="matrix(1,0,0,1,-1063.945833,-351.595)">
        <g transform="matrix(1,0,0,1,40,120)">
            <g id="Layer0_35_FILL">
                <path d="M1026.75,246.2C1026.25,246 1025.75,246 1025.25,246.2C1024.783,246.367 1024.433,246.667 1024.2,247.1L1024.2,247.15L1028.05,260L1049.4,260L1052.35,252.25C1052.083,251.883 1051.767,251.6 1051.4,251.4C1050.933,251.167 1050.45,251.133 1049.95,251.3L1044.5,253.05L1040.85,235.15C1040.75,234.75 1040.533,234.4 1040.2,234.1C1039.867,233.8 1039.467,233.633 1039,233.6C1038.533,233.567 1038.117,233.7 1037.75,234C1037.383,234.233 1037.133,234.567 1037,235L1032.75,248.7L1026.75,246.2Z" style="fill:rgb(39,174,96);fill-rule:nonzero;"/>
                <path d="M1025.25,246.2C1025.75,246 1026.25,246 1026.75,246.2L1032.75,248.7L1037,235C1037.133,234.567 1037.383,234.233 1037.75,234C1038.117,233.7 1038.533,233.567 1039,233.6C1039.467,233.633 1039.867,233.8 1040.2,234.1C1040.533,234.4 1040.75,234.75 1040.85,235.15L1044.5,253.05L1049.95,251.3C1050.45,251.133 1050.933,251.167 1051.4,251.4C1051.767,251.6 1052.083,251.883 1052.35,252.25L1052.45,251.9C1052.617,251.4 1052.6,250.917 1052.4,250.45C1052.367,250.383 1052.35,250.333 1052.35,250.3C1052.117,249.9 1051.8,249.617 1051.4,249.45C1050.933,249.217 1050.45,249.183 1049.95,249.35L1044.5,251.05L1040.85,233.2C1040.75,232.767 1040.533,232.4 1040.2,232.1C1039.867,231.8 1039.467,231.633 1039,231.6C1038.533,231.567 1038.117,231.7 1037.75,232C1037.383,232.233 1037.133,232.583 1037,233.05L1032.75,246.7L1026.75,244.25C1026.25,244.05 1025.75,244.05 1025.25,244.25C1024.783,244.417 1024.433,244.7 1024.2,245.1L1024.15,245.15C1023.917,245.617 1023.883,246.117 1024.05,246.65L1024.2,247.15L1024.2,247.1C1024.433,246.667 1024.783,246.367 1025.25,246.2Z" style="fill:rgb(43,194,106);fill-rule:nonzero;"/>
            </g>
        </g>
    </g>
</svg>
