<?xml version="1.0" encoding="UTF-8" standalone="no"?>
<!DOCTYPE svg PUBLIC "-//W3C//DTD SVG 1.1//EN" "http://www.w3.org/Graphics/SVG/1.1/DTD/svg11.dtd">
<svg width="100%" height="100%" viewBox="0 0 59 81" version="1.1" xmlns="http://www.w3.org/2000/svg" xmlns:xlink="http://www.w3.org/1999/xlink" xml:space="preserve" xmlns:serif="http://www.serif.com/" style="fill-rule:evenodd;clip-rule:evenodd;stroke-linejoin:round;stroke-miterlimit:2;">
    <g transform="matrix(1,0,0,1,-1244.492707,-299.984426)">
        <g transform="matrix(1,0,0,1,40,120)">
            <g id="Layer0_88_FILL">
                <path d="M1225.65,253.6C1225.546,255.732 1225.43,257.866 1225.3,260L1225.4,260C1225.525,257.867 1225.608,255.733 1225.65,253.6M1245.2,240.05C1245.188,237.717 1245.121,235.384 1245,233.05C1244.969,233.068 1244.936,233.085 1244.9,233.1C1245.036,235.417 1245.136,237.734 1245.2,240.05Z" style="fill:rgb(46,204,113);fill-rule:nonzero;"/>
                <path d="M1217.3,213.35C1218.7,214.817 1219.35,216.567 1219.25,218.6C1219.183,223.833 1221.133,227.833 1225.1,230.6C1225.048,229.894 1224.981,229.178 1224.9,228.45C1221.068,225.71 1219.184,221.76 1219.25,216.6C1219.35,214.567 1218.7,212.817 1217.3,211.35C1215.933,209.85 1214.233,209.05 1212.2,208.95C1210.167,208.883 1208.417,209.533 1206.95,210.9C1205.45,212.267 1204.65,213.967 1204.55,216C1204.498,217.023 1204.482,218.023 1204.5,219C1204.516,218.669 1204.533,218.336 1204.55,218C1204.65,215.967 1205.45,214.267 1206.95,212.9C1208.417,211.533 1210.167,210.883 1212.2,210.95C1214.233,211.05 1215.933,211.85 1217.3,213.35M1226.9,182.25C1229.533,181.65 1232,182.067 1234.3,183.5C1235.803,184.458 1236.936,185.658 1237.7,187.1C1238.125,187.865 1238.442,188.699 1238.65,189.6C1240.717,198.633 1242.317,207.667 1243.45,216.7C1246.417,214 1247.867,210.383 1247.8,205.85C1247.733,203.817 1248.383,202.067 1249.75,200.6C1251.15,199.067 1252.85,198.267 1254.85,198.2C1256.883,198.1 1258.65,198.75 1260.15,200.15C1261.65,201.517 1262.45,203.217 1262.55,205.25C1262.567,205.582 1262.583,205.898 1262.6,206.2C1262.618,205.253 1262.601,204.269 1262.55,203.25C1262.45,201.217 1261.65,199.517 1260.15,198.15C1258.65,196.75 1256.883,196.1 1254.85,196.2C1252.85,196.267 1251.15,197.067 1249.75,198.6C1248.383,200.067 1247.733,201.817 1247.8,203.85C1247.867,208.383 1246.417,212 1243.45,214.7C1242.317,205.667 1240.717,196.633 1238.65,187.6C1238.611,187.431 1238.561,187.264 1238.5,187.1C1237.85,184.738 1236.45,182.871 1234.3,181.5C1232,180.067 1229.533,179.65 1226.9,180.25C1224.267,180.85 1222.233,182.3 1220.8,184.6C1220.282,185.412 1219.899,186.246 1219.65,187.1C1219.299,188.254 1219.182,189.437 1219.3,190.65C1219.449,189.434 1219.849,188.25 1220.5,187.1C1220.594,186.933 1220.694,186.766 1220.8,186.6C1222.233,184.3 1224.267,182.85 1226.9,182.25Z" style="fill:rgb(43,194,106);fill-rule:nonzero;"/>
                <path d="M1234.3,183.5C1232,182.067 1229.533,181.65 1226.9,182.25C1224.267,182.85 1222.233,184.3 1220.8,186.6C1220.694,186.766 1220.594,186.933 1220.5,187.1C1219.849,188.25 1219.449,189.434 1219.3,190.65C1219.359,191.103 1219.442,191.553 1219.55,192C1222.35,204.2 1224.2,216.4 1225.1,228.6C1225.044,228.561 1224.978,228.511 1224.9,228.45C1224.981,229.178 1225.048,229.894 1225.1,230.6C1221.133,227.833 1219.183,223.833 1219.25,218.6C1219.35,216.567 1218.7,214.817 1217.3,213.35C1215.933,211.85 1214.233,211.05 1212.2,210.95C1210.167,210.883 1208.417,211.533 1206.95,212.9C1205.45,214.267 1204.65,215.967 1204.55,218C1204.533,218.336 1204.516,218.669 1204.5,219C1204.852,231.82 1211.935,240.554 1225.75,245.2L1225.75,247.2L1225.65,253.6C1225.608,255.733 1225.525,257.867 1225.4,260L1244.95,260C1245.07,257.834 1245.17,255.667 1245.25,253.5L1245.2,240.05C1245.136,237.734 1245.036,235.417 1244.9,233.1C1244.936,233.085 1244.969,233.068 1245,233.05C1244.972,232.401 1244.938,231.751 1244.9,231.1C1256.378,226.207 1262.278,217.907 1262.6,206.2C1262.583,205.898 1262.567,205.582 1262.55,205.25C1262.45,203.217 1261.65,201.517 1260.15,200.15C1258.65,198.75 1256.883,198.1 1254.85,198.2C1252.85,198.267 1251.15,199.067 1249.75,200.6C1248.383,202.067 1247.733,203.817 1247.8,205.85C1247.867,210.383 1246.417,214 1243.45,216.7C1242.317,207.667 1240.717,198.633 1238.65,189.6C1238.442,188.699 1238.125,187.865 1237.7,187.1C1236.936,185.658 1235.803,184.458 1234.3,183.5Z" style="fill:rgb(39,174,96);fill-rule:nonzero;"/>
            </g>
        </g>
    </g>
</svg>
